# AST/ASF file generated using VICON BodyLanguage
# -----------------------------------------------
:version 1.10
:name VICON
:units
  mass 1.0
  length 0.45
  angle deg
:documentation
   .ast/.asf automatically generated from VICON data using
   VICON BodyBuilder and BodyLanguage model FoxedUp or BRILLIANT.MOD
:root
   order TX TY TZ RX RY RZ
   axis XYZ
   position 0 0 0  
   orientation 0 0 0 
:bonedata
  begin
     id 1 
     name lhipjoint
     direction 0.660183 -0.676772 0.325788 
     length 2.75133 
     axis 0 0 0  XYZ
  end
  begin
     id 2 
     name lfemur
     direction 0.34202 -0.939693 0  
     length 7.70317  
     axis 0 0 20  XYZ
    dof rx ry rz
    limits (-160.0 20.0)
           (-70.0 70.0)
           (-60.0 70.0)
  end
  begin
     id 3 
     name ltibia
     direction 0.342105 -0.939662 0   
     length 7.18701   
     axis 0 0 20   XYZ
    dof rx
    limits (-10.0 170.0)
  end
  begin
     id 4 
     name lfoot
     direction 0.14163 -0.389126 0.910232   
     length 2.41719   
     axis -90 7.62852e-016 20   XYZ
    dof rx rz
    limits (-45.0 90.0)
           (-70.0 20.0)
  end
  begin
     id 5 
     name ltoes
     direction 1.53533e-011 -4.21926e-011 1   
     length 1.18611   
     axis -90 7.62852e-016 20   XYZ
    dof rx
    limits (-90.0 20.0)
  end
  begin
     id 6 
     name rhipjoint
     direction -0.6658 -0.67229 0.323631   
     length 2.76968  
     axis 0 0 0  XYZ 
  end
  begin
     id 7 
     name rfemur
     direction -0.34202 -0.939693 0   
     length 7.92547   
     axis 0 0 -20   XYZ
    dof rx ry rz
    limits (-160.0 20.0)
           (-70.0 70.0)
           (-70.0 60.0)
  end
  begin
     id 8 
     name rtibia
     direction -0.342022 -0.939692 0   
     length 7.22641   
     axis 0 0 -20   XYZ
    dof rx
    limits (-10.0 170.0)
 end
 begin
     id 9 
     name rfoot
     direction -0.105675 -0.29034 0.951071   
     length 2.48149  
     axis -90 -7.62852e-016 -20   XYZ
    dof rx rz
    limits (-45.0 90.0)
           (-20.0 70.0)
  end
  begin
     id 10 
     name rtoes
     direction -1.5349e-011 -4.21859e-011 1   
     length 1.23343   
     axis -90 -7.62852e-016 -20   XYZ
    dof rx
    limits (-90.0 20.0)
  end
  begin
     id 11 
     name lowerback
     direction 0.0104173 0.993624 -0.112266   
     length 2.00527   
     axis 0 0 0   XYZ
    dof rx ry rz
    limits (-20.0 45.0)
           (-30.0 30.0)
           (-30.0 30.0)
  end
  begin
     id 12 
     name upperback
     direction 0.00733149 0.999856 -0.0152913   
     length 2.01385   
     axis 0 0 0   XYZ
    dof rx ry rz
    limits (-20.0 45.0)
           (-30.0 30.0)
           (-30.0 30.0)
  end
  begin
     id 13 
     name thorax
     direction 0.0026304 0.999318 0.036841   
     length 2.03734   
     axis 0 0 0   XYZ
    dof rx ry rz
    limits (-20.0 45.0)
           (-30.0 30.0)
           (-30.0 30.0)
  end
  begin
     id 14 
     name lowerneck
     direction 0.0293154 0.998757 0.0403082   
     length 1.65303   
     axis 0 0 0   XYZ
    dof rx ry rz
    limits (-20.0 45.0)
           (-30.0 30.0)
           (-30.0 30.0)
  end
  begin
     id 15 
     name upperneck
     direction -0.0376619 0.998184 -0.0470083   
     length 1.60926   
     axis 0 0 0   XYZ
    dof rx ry rz
    limits (-20.0 45.0)
           (-30.0 30.0)
           (-30.0 30.0)
  end
  begin
     id 16
     name head
     direction -0.0170133 0.999635 -0.0209778  
     length 1.73625  
     axis 0 0 0   XYZ
    dof rx ry rz
    limits (-20.0 45.0)
           (-30.0 30.0)
           (-30.0 30.0)
  end
  begin
     id 17 
     name lclavicle
     direction 0.919857 0.39181 -0.0186333  
     length 3.75313  
     axis 0 0 0   XYZ
    dof ry rz
    limits (-20.0 10.0)
           (0.0 20.0)
  end
  begin
     id 18 
     name lhumerus
     direction 1 -4.48988e-011 1.44029e-027   
     length 5.49313   
     axis 180 -30 -90   XYZ
    dof rx ry rz
    limits (-60.0 90.0)
           (-90.0 90.0)
           (-90.0 90.0)
  end
  begin
     id 19
     name lradius
     direction 1 -4.48924e-011 7.46281e-027   
     length 3.29037   
     axis 180 -30 -90   XYZ
    dof rx
    limits (-10.0 170.0)
  end
  begin
     id 20
     name lwrist
     direction 1 -4.48955e-011 2.19879e-026   
     length 1.64519   
     axis -1.34358e-014 90 90   XYZ
    dof ry
    limits (-180.0 0.0)
 end
  begin
     id 21 
     name lhand
     direction 1 -4.48978e-011 4.39747e-026   
     length 0.729656   
     axis -2.80598e-014 90 90   XYZ
    dof rx rz
    limits (-90.0 90.0)
           (-45.0 45.0)
  end
  begin
     id 22 
     name lfingers
     direction 1 -4.49071e-011 8.79411e-026   
     length 0.588268   
     axis -5.61193e-014 90 90   XYZ
    dof rx
    limits (0.0 90.0)
  end
  begin
     id 23
     name lthumb
     direction 0.707107 -6.34817e-011 0.707107   
     length 0.844638   
     axis -90 45 -9.86923e-015   XYZ
    dof rx rz
    limits (-45.0 45.0)
           (-45.0 45.0)
  end
  begin
     id 24 
     name rclavicle
     direction -0.919898 0.388279 0.0550233   
     length 3.7171  
     axis 0 0 0   XYZ 
    dof ry rz
    limits (-10.0 20.0)
           (-20.0 0.0)
  end
  begin
     id 25 
     name rhumerus
     direction -1 -4.48968e-011 9.98372e-028  
     length 5.23684   
     axis 180 30 90   XYZ
    dof rx ry rz
    limits (-90.0 60.0)
           (-90.0 90.0)
           (-90.0 90.0)
  end
  begin
     id 26 
     name rradius
     direction -1 -4.48956e-011 1.01023e-026   
     length 3.38251   
     axis 180 30 90   XYZ
    dof rx
    limits (-10.0 170.0)
  end
  begin
     id 27 
     name rwrist
     direction -1 -4.4892e-011 2.19886e-026   
     length 1.69126   
     axis -1.34358e-014 -90 -90   XYZ
    dof ry
    limits (-180.0 0.0)
  end
  begin
     id 28
     name rhand
     direction -1 -4.49024e-011 4.39727e-026   
     length 0.691454   
     axis -2.80598e-014 -90 -90   XYZ
    dof rx rz
    limits (-90.0 90.0)
           (-45.0 45.0)
  end
  begin
     id 29
     name rfingers
     direction -1 -4.49097e-011 8.79388e-026   
     length 0.557468   
     axis -5.61193e-014 -90 -90   XYZ
    dof rx
    limits (0.0 90.0)
  end
  begin
     id 30
     name rthumb
     direction -0.707107 -6.34938e-011 0.707107   
     length 0.800416   
     axis -90 -45 9.86923e-015   XYZ
    dof rx rz
    limits (-45.0 45.0)
           (-45.0 45.0)
  end
:hierarchy
  begin
    root lhipjoint rhipjoint lowerback
    lhipjoint lfemur
    lfemur ltibia
    ltibia lfoot
    lfoot ltoes
    rhipjoint rfemur
    rfemur rtibia
    rtibia rfoot
    rfoot rtoes
    lowerback upperback
    upperback thorax
    thorax lowerneck lclavicle rclavicle
    lowerneck upperneck
    upperneck head
    lclavicle lhumerus
    lhumerus lradius
    lradius lwrist
    lwrist lhand lthumb
    lhand lfingers
    rclavicle rhumerus
    rhumerus rradius
    rradius rwrist
    rwrist rhand rthumb
    rhand rfingers
  end

#!OML:ASF H:\BabyWalks\Project 1\Capture day 1\Session 1\baby.ASF
:FULLY-SPECIFIED
:DEGREES
237
root -28.9474 17.7269 -2.07341 -19.6936 88.2771 -28.8822
lowerback 14.8089 -1.38659 -3.83861
upperback 4.18162 -2.07227 2.46263
thorax -3.62219 -0.93775 5.13223
lowerneck -7.79133 -1.59949 6.14924
upperneck 7.89521 -2.29641 -5.87945
head 3.47831 -1.23105 -2.90989
rclavicle 9.29318e-015 1.86858e-014
rhumerus -51.5766 10.0504 -84.061
rradius 42.1028
rwrist -1.49025
rhand -4.05709 -16.4891
rfingers 7.12502
rthumb 21.6991 -45.293
lclavicle 9.29318e-015 1.86858e-014
lhumerus -43.2367 -3.88683 76.545
lradius 64.6046
lwrist 9.74022
lhand -8.23172 9.0134
lfingers 7.12502
lthumb 17.6859 38.2291
rfemur -26.4493 14.2857 16.2409
rtibia 33.4776
rfoot -20.7983 8.20302
rtoes -4.20125
lfemur -1.91552 -1.3008 -17.7996
ltibia 30.7671
lfoot -12.4455 -23.2118
ltoes -2.69727
238
root -28.8084 17.6912 -2.04865 -20.6795 88.5367 -29.5831
lowerback 14.9265 -1.41582 -3.66925
upperback 4.23387 -2.07577 2.59395
thorax -3.63139 -0.938139 5.17946
lowerneck -7.61485 -1.53729 6.38913
upperneck 7.87165 -2.15645 -6.66248
head 3.43775 -1.18805 -3.18043
rclavicle 1.72943e-014 -6.16232e-015
rhumerus -51.6109 9.93482 -83.8961
rradius 42.0776
rwrist -1.43688
rhand -4.06754 -16.4915
rfingers 7.12502
rthumb 21.6891 -45.2966
lclavicle 1.72943e-014 -6.16232e-015
lhumerus -43.5251 -3.7561 76.7392
lradius 64.2376
lwrist 9.73906
lhand -8.15753 9.10079
lfingers 7.12502
lthumb 17.7573 38.31
rfemur -25.9246 14.6833 16.493
rtibia 33.8794
rfoot -20.2164 7.43414
rtoes -2.09859
lfemur -2.32208 -0.697061 -17.5334
ltibia 32.6744
lfoot -10.8366 -24.5651
ltoes -2.79808
239
root -28.67 17.6517 -2.02257 -23.3174 88.8133 -31.9072
lowerback 15.0776 -1.44211 -3.47728
upperback 4.297 -2.07115 2.72197
thorax -3.649 -0.933905 5.21003
lowerneck -7.4395 -1.48072 6.63314
upperneck 7.83145 -2.02672 -7.42427
head 3.39322 -1.14775 -3.44614
rclavicle -2.56432e-014 2.04748e-014
rhumerus -51.6263 9.79325 -83.7338
rradius 42.0466
rwrist -1.38207
rhand -4.06211 -16.4915
rfingers 7.12502
rthumb 21.6943 -45.296
lclavicle -2.56432e-014 2.04748e-014
lhumerus -43.8116 -3.61524 76.9291
lradius 63.8436
lwrist 9.72029
lhand -8.07782 9.20304
lfingers 7.12502
lthumb 17.834 38.4053
rfemur -25.3442 15.143 16.7439
rtibia 34.429
rfoot -19.89 6.74363
rtoes -0.0704989
lfemur -2.87133 -0.101641 -17.2001
ltibia 34.8161
lfoot -8.82585 -25.9532
ltoes -3.13101
240
root -28.5327 17.6086 -1.99591 -29.2713 89.0803 -37.5338
lowerback 15.262 -1.463 -3.24246
upperback 4.36319 -2.05221 2.84507
thorax -3.68478 -0.921729 5.20975
lowerneck -7.27319 -1.42924 6.87611
upperneck 7.77881 -1.90765 -8.15256
head 3.3473 -1.11017 -3.70256
rclavicle 2.38542e-014 7.55382e-015
rhumerus -51.6303 9.62158 -83.5733
rradius 42.0166
rwrist -1.32857
rhand -4.03922 -16.4739
rfingers 7.12502
rthumb 21.7163 -45.2759
lclavicle 2.38542e-014 7.55382e-015
lhumerus -44.1078 -3.46417 77.1102
lradius 63.4328
lwrist 9.67646
lhand -8.00086 9.3055
lfingers 7.12502
lthumb 17.908 38.501
rfemur -24.7342 15.6526 17.0033
rtibia 35.0886
rfoot -19.8936 6.08538
rtoes 1.49529
lfemur -3.57173 0.436839 -16.8041
ltibia 37.1695
lfoot -6.41336 -27.2587
ltoes -3.62796
241
root -28.3966 17.5613 -1.96918 -43.2562 89.3067 -51.1821
lowerback 15.4776 -1.48347 -2.9433
upperback 4.43075 -2.02137 2.96729
thorax -3.73961 -0.902796 5.17084
lowerneck -7.11292 -1.38086 7.11939
upperneck 7.70632 -1.79746 -8.84467
head 3.29721 -1.07434 -3.9488
rclavicle 3.37934e-014 -2.18663e-014
rhumerus -51.6246 9.42587 -83.4154
rradius 41.9894
rwrist -1.28452
rhand -4.00199 -16.4578
rfingers 7.12502
rthumb 21.752 -45.2556
lclavicle 3.37934e-014 -2.18663e-014
lhumerus -44.4266 -3.29959 77.2823
lradius 63.0158
lwrist 9.60255
lhand -7.93745 9.40873
lfingers 7.12502
lthumb 17.969 38.5986
rfemur -24.1046 16.1776 17.3012
rtibia 35.8173
rfoot -20.203 5.4907
rtoes 2.6395
lfemur -4.40386 0.87616 -16.3343
ltibia 39.7026
lfoot -3.70815 -28.4229
ltoes -4.2902
242
root -28.2616 17.511 -1.94278 -70.9667 89.3936 -78.554
lowerback 15.6946 -1.50269 -2.56691
upperback 4.51498 -1.97296 3.10427
thorax -3.78143 -0.875188 5.09981
lowerneck -6.95594 -1.33923 7.36332
upperneck 7.58592 -1.70316 -9.50063
head 3.2334 -1.04367 -4.18469
rclavicle 9.54166e-015 -3.57812e-015
rhumerus -51.5859 9.20791 -83.2436
rradius 41.9657
rwrist -1.25234
rhand -3.9586 -16.4355
rfingers 7.12502
rthumb 21.7937 -45.2285
lclavicle 9.54166e-015 -3.57812e-015
lhumerus -44.7468 -3.11314 77.4598
lradius 62.5921
lwrist 9.49339
lhand -7.90617 9.50511
lfingers 7.12502
lthumb 17.9991 38.6922
rfemur -23.4608 16.6807 17.6809
rtibia 36.5682
rfoot -20.7692 4.96147
rtoes 3.3915
lfemur -5.35915 1.20151 -15.7705
ltibia 42.3898
lfoot -0.91784 -29.4168
ltoes -5.19121
243
root -28.1275 17.4586 -1.91766 -97.7598 89.2257 -105.015
lowerback 15.9122 -1.52345 -2.08265
upperback 4.61012 -1.90534 3.25765
thorax -3.81686 -0.837761 4.98057
lowerneck -6.79379 -1.30349 7.60286
upperneck 7.40995 -1.62491 -10.1079
head 3.15214 -1.01762 -4.40514
rclavicle 2.18663e-015 -2.46493e-014
rhumerus -51.5199 8.97843 -83.0644
rradius 41.9439
rwrist -1.23628
rhand -3.91325 -16.4114
rfingers 7.12502
rthumb 21.8373 -45.1993
lclavicle 2.18663e-015 -2.46493e-014
lhumerus -45.0845 -2.90259 77.6418
lradius 62.1673
lwrist 9.34927
lhand -7.92369 9.59678
lfingers 7.12502
lthumb 17.9823 38.7855
rfemur -22.8102 17.1198 18.1787
rtibia 37.2983
rfoot -21.4954 4.47787
rtoes 3.69448
lfemur -6.42101 1.40487 -15.1022
ltibia 45.1991
lfoot 1.7924 -30.1787
ltoes -5.95646
